<svg width="25" height="24" viewBox="0 0 25 24" fill="none" xmlns="http://www.w3.org/2000/svg">
<path d="M7.75 6C7.75 5.73478 7.85536 5.48043 8.04289 5.29289C8.23043 5.10536 8.48478 5 8.75 5H16.75C17.0152 5 17.2696 5.10536 17.4571 5.29289C17.6446 5.48043 17.75 5.73478 17.75 6V8C17.75 8.26522 17.6446 8.51957 17.4571 8.70711C17.2696 8.89464 17.0152 9 16.75 9H8.75C8.48478 9 8.23043 8.89464 8.04289 8.70711C7.85536 8.51957 7.75 8.26522 7.75 8V6ZM9.25 7.5H16.25V6.5H9.25V7.5Z" fill="#09091A"/>
<path d="M4.75 4.5C4.75 3.83696 5.01339 3.20107 5.48223 2.73223C5.95107 2.26339 6.58696 2 7.25 2H18.75C19.0783 2 19.4034 2.06466 19.7067 2.1903C20.01 2.31594 20.2856 2.50009 20.5178 2.73223C20.7499 2.96438 20.9341 3.23998 21.0597 3.54329C21.1853 3.84661 21.25 4.1717 21.25 4.5V18.75C21.25 18.9489 21.171 19.1397 21.0303 19.2803C20.8897 19.421 20.6989 19.5 20.5 19.5H6.25C6.25 19.7652 6.35536 20.0196 6.54289 20.2071C6.73043 20.3946 6.98478 20.5 7.25 20.5H20.5C20.6989 20.5 20.8897 20.579 21.0303 20.7197C21.171 20.8603 21.25 21.0511 21.25 21.25C21.25 21.4489 21.171 21.6397 21.0303 21.7803C20.8897 21.921 20.6989 22 20.5 22H7.25C6.58696 22 5.95107 21.7366 5.48223 21.2678C5.01339 20.7989 4.75 20.163 4.75 19.5V4.5ZM6.25 18H19.75V4.5C19.75 4.23478 19.6446 3.98043 19.4571 3.79289C19.2696 3.60536 19.0152 3.5 18.75 3.5H7.25C6.98478 3.5 6.73043 3.60536 6.54289 3.79289C6.35536 3.98043 6.25 4.23478 6.25 4.5V18Z" fill="#09091A"/>
</svg>
