<svg width="16" height="20" viewBox="0 0 16 20" fill="none" xmlns="http://www.w3.org/2000/svg">
<path d="M9 1C9 0.44772 8.5523 0 8 0C7.4477 0 7 0.44772 7 1V13.0858L3.70711 9.7929C3.31658 9.4024 2.68342 9.4024 2.29289 9.7929C1.90237 10.1834 1.90237 10.8166 2.29289 11.2071L7.2929 16.2071C7.6834 16.5976 8.3166 16.5976 8.7071 16.2071L13.7071 11.2071C14.0976 10.8166 14.0976 10.1834 13.7071 9.7929C13.3166 9.4024 12.6834 9.4024 12.2929 9.7929L9 13.0858V1ZM1 18C0.44772 18 0 18.4477 0 19C0 19.5523 0.44772 20 1 20H15C15.5523 20 16 19.5523 16 19C16 18.4477 15.5523 18 15 18H1Z" fill="black"/>
</svg>
