<svg width="12" height="16" viewBox="0 0 12 16" fill="none" xmlns="http://www.w3.org/2000/svg">
<path d="M1.61727 5.99233L1.61546 5.99368L1.6125 5.99592L1.60472 6.0019C1.59873 6.00653 1.59113 6.01249 1.58206 6.0198C1.56393 6.03439 1.53986 6.05436 1.51082 6.07975C1.45277 6.13049 1.37463 6.20315 1.28427 6.29828C1.10378 6.48828 0.87276 6.76985 0.656325 7.14717C0.219683 7.90842 -0.14724 9.04295 0.0590101 10.5606C0.262478 12.058 0.891248 13.3101 1.95533 14.183C3.01563 15.0528 4.4515 15.5 6.1875 15.5C7.97813 15.5 9.40687 14.8291 10.3531 13.6774C11.2908 12.5365 11.7092 10.9806 11.609 9.2795C11.5131 7.64765 10.6242 6.40959 9.8391 5.31592C9.76327 5.21032 9.68842 5.10607 9.61537 5.00293C8.75887 3.79417 8.0826 2.67993 8.24693 1.12147C8.26365 0.962907 8.21227 0.804688 8.10562 0.68618C7.9989 0.567672 7.84695 0.5 7.6875 0.5C7.401 0.5 7.07317 0.588665 6.75577 0.721992C6.42862 0.859422 6.0738 1.06063 5.72633 1.32271C5.0328 1.84579 4.33942 2.63422 3.96927 3.68869C3.60005 4.74056 3.7871 5.74317 4.05756 6.4724C4.23517 6.95127 4.04254 7.42475 3.7526 7.56238C3.49619 7.68418 3.18939 7.58202 3.05714 7.33085L2.45165 6.18089C2.37505 6.03539 2.23861 5.9307 2.07824 5.89436C1.91788 5.85802 1.74911 5.89407 1.61727 5.99233Z" fill="#FFC72C"/>
</svg>
