<svg width="20" height="19" viewBox="0 0 20 19" fill="none" xmlns="http://www.w3.org/2000/svg">
<path d="M7.6786 17.9244L11.2411 16.4123C11.3744 17.2925 10.9031 18.185 10.0458 18.5489C9.1885 18.9128 8.2192 18.6318 7.6786 17.9244ZM13.1113 0.093922C15.197 1.23347 16.7628 2.69659 17.793 4.48101C18.8232 6.26543 19.3075 8.353 19.2515 10.7291C19.2417 11.1432 18.8981 11.4709 18.484 11.4612C18.0699 11.4514 17.7421 11.1078 17.7519 10.6937C17.8016 8.5824 17.3804 6.76635 16.494 5.23101C15.6075 3.69566 14.2454 2.42285 12.3921 1.41027C12.0286 1.21167 11.8949 0.756002 12.0935 0.392502C12.2921 0.0290019 12.7478 -0.104678 13.1113 0.093922ZM3.96144 4.51547C6.82319 3.24134 10.1656 4.4461 11.5609 7.26099L11.6592 7.47041L12.9466 10.3623L14.6449 11.832C14.7376 11.9123 14.8179 12.0057 14.911 12.1568L14.9697 12.2711C15.2491 12.9024 14.9638 13.6407 14.3325 13.9201L4.00588 18.4902C3.84655 18.5607 3.67424 18.5972 3.5 18.5972C2.80964 18.5972 2.25 18.0375 2.25 17.3475L2.24892 15.0046L1.00654 12.2132C-0.306962 9.2631 1.01572 5.82699 3.96144 4.51547ZM2.3769 11.6032L3.74877 14.6855L3.74982 16.9632L13.3649 12.708L11.7122 11.2777L10.2953 8.0946L10.2103 7.91326C9.1789 5.83289 6.69847 4.93882 4.57154 5.88579C2.38205 6.86061 1.40056 9.4103 2.3769 11.6032ZM12.8737 3.69457C13.8407 4.22184 14.6157 4.9892 15.19 5.98387C15.7642 6.97855 16.0413 8.0334 16.0144 9.1345C16.0043 9.5486 15.6605 9.8761 15.2464 9.866C14.8323 9.8559 14.5048 9.512 14.5149 9.0979C14.5349 8.2763 14.3292 7.49294 13.8909 6.73387C13.4527 5.97481 12.8772 5.40494 12.1556 5.01151C11.792 4.81321 11.6579 4.35765 11.8562 3.99399C12.0545 3.63032 12.5101 3.49627 12.8737 3.69457Z" fill="#09091A"/>
</svg>
