<svg width="20" height="15" viewBox="0 0 20 15" fill="none" xmlns="http://www.w3.org/2000/svg">
<path d="M7.80826 0.507689C7.2793 0.243289 6.69852 0.201529 6.1698 0.302269L4.98717 0.527589C4.12539 0.691789 3.38365 1.24525 2.98331 2.02794C1.61632 4.70048 0.582692 6.8895 0.183992 8.7567C-0.227218 10.6826 0.0241826 12.3319 1.2632 13.8331C2.08481 14.8286 3.49285 14.6274 4.22669 13.797C4.78546 13.1647 5.42172 12.4325 6.04401 11.7109C6.45381 11.2357 7.04867 10.9623 7.67372 10.9623H12.3294C12.9545 10.9623 13.5493 11.2357 13.9591 11.7109C14.5814 12.4325 15.2177 13.1647 15.7764 13.797C16.5103 14.6274 17.9183 14.8286 18.7399 13.8331C19.9789 12.3319 20.2304 10.6826 19.8191 8.7567C19.4204 6.8895 18.3868 4.70048 17.0198 2.02794C16.6195 1.24525 15.8777 0.691789 15.016 0.527589L13.8333 0.302269C13.3046 0.201529 12.7238 0.243289 12.1949 0.507689C12.0512 0.579489 11.9039 0.65667 11.7554 0.73714C11.4002 0.92964 11.0191 1.03382 10.6424 1.03382H9.3607C8.984 1.03382 8.6029 0.92964 8.2477 0.73714C8.0992 0.65667 7.9519 0.579489 7.80826 0.507689ZM6.43715 1.70549C6.71249 1.65303 6.96637 1.68386 7.16957 1.78543C7.29676 1.84901 7.42995 1.91871 7.56709 1.99304C8.1066 2.28543 8.7198 2.46228 9.3607 2.46228H10.6424C11.2834 2.46228 11.8965 2.28543 12.436 1.99304C12.5732 1.91871 12.7064 1.84901 12.8336 1.78543C13.0368 1.68386 13.2906 1.65303 13.566 1.70549L14.7486 1.93082C15.1792 2.01286 15.5493 2.28983 15.7481 2.67844C17.1283 5.3769 18.0691 7.4017 18.4222 9.055C18.7627 10.6497 18.543 11.8276 17.6382 12.9239C17.5509 13.0297 17.4318 13.0792 17.2901 13.0728C17.1404 13.066 16.973 12.9939 16.8468 12.8511C16.2934 12.2248 15.6613 11.4974 15.0409 10.778C14.3613 9.99 13.3724 9.5338 12.3294 9.5338H7.67372C6.63075 9.5338 5.64183 9.99 4.96226 10.778C4.34182 11.4974 3.70972 12.2248 3.15628 12.8511C3.03013 12.9939 2.86276 13.066 2.713 13.0728C2.57138 13.0792 2.45225 13.0297 2.36491 12.9239C1.46011 11.8276 1.24047 10.6497 1.58097 9.055C1.93399 7.4017 2.87484 5.3769 4.25507 2.67844C4.45384 2.28983 4.82393 2.01286 5.25453 1.93082L6.43715 1.70549ZM10.0013 6.0004C10.5536 6.0004 11.0013 5.5527 11.0013 5.0004C11.0013 4.44814 10.5536 4.00043 10.0013 4.00043C9.4491 4.00043 9.0013 4.44814 9.0013 5.0004C9.0013 5.5527 9.4491 6.0004 10.0013 6.0004Z" fill="#09091A"/>
</svg>
