<svg width="18" height="18" viewBox="0 0 18 18" fill="none" xmlns="http://www.w3.org/2000/svg">
<path d="M7.37689 1.52548C7.46128 1.55419 7.54372 1.58834 7.62367 1.62771L8.58577 2.10137C8.84685 2.22992 9.15285 2.22992 9.41392 2.10137L10.376 1.62771C11.3979 1.12456 12.6343 1.54513 13.1374 2.56707L13.1925 2.68882L13.2396 2.81387L13.585 3.82907C13.6787 4.1046 13.8951 4.32097 14.1706 4.4147L15.1858 4.76005C16.2642 5.12689 16.841 6.29849 16.4742 7.37689C16.4455 7.46128 16.4113 7.54372 16.372 7.62367L15.8983 8.58577C15.7697 8.84685 15.7697 9.15285 15.8983 9.41392L16.372 10.376C16.8751 11.3979 16.4545 12.6343 15.4326 13.1374C15.3526 13.1767 15.2702 13.2109 15.1858 13.2396L14.1706 13.585C13.8951 13.6787 13.6787 13.8951 13.585 14.1706L13.2396 15.1858C12.8728 16.2642 11.7012 16.841 10.6228 16.4742C10.5384 16.4455 10.456 16.4113 10.376 16.372L9.41392 15.8983C9.15285 15.7697 8.84685 15.7697 8.58577 15.8983L7.62367 16.372C6.60175 16.8751 5.36542 16.4545 4.86227 15.4326C4.8229 15.3526 4.78875 15.2702 4.76005 15.1858L4.4147 14.1706C4.32097 13.8951 4.1046 13.6787 3.82907 13.585L2.81387 13.2396C1.73547 12.8728 1.15864 11.7012 1.52548 10.6228C1.55419 10.5384 1.58834 10.456 1.62771 10.376L2.10137 9.41392C2.22992 9.15285 2.22992 8.84685 2.10137 8.58577L1.62771 7.62367C1.12456 6.60175 1.54513 5.36542 2.56707 4.86227C2.64704 4.8229 2.72948 4.78875 2.81387 4.76005L3.82907 4.4147C4.1046 4.32097 4.32097 4.1046 4.4147 3.82907L4.76005 2.81387C5.12689 1.73547 6.29849 1.15864 7.37689 1.52548ZM5.82511 3.17617L5.47976 4.19137C5.27356 4.79754 4.79754 5.27356 4.19137 5.47976L3.17617 5.82511C3.13782 5.83816 3.10035 5.85368 3.064 5.87158C2.59948 6.10027 2.40831 6.66224 2.63701 7.12676L3.11068 8.08882C3.39349 8.66325 3.39349 9.33645 3.11068 9.91087L2.63701 10.8729C2.61912 10.9093 2.60359 10.9468 2.59054 10.9851C2.4238 11.4753 2.686 12.0078 3.17617 12.1746L4.19137 12.5199C4.79754 12.7261 5.27356 13.2022 5.47976 13.8083L5.82511 14.8235C5.83816 14.8618 5.85368 14.8993 5.87158 14.9356C6.10027 15.4002 6.66224 15.5914 7.12676 15.3627L8.08882 14.889C8.66325 14.6062 9.33645 14.6062 9.91087 14.889L10.8729 15.3627C10.9093 15.3805 10.9468 15.3961 10.9851 15.4091C11.4753 15.5758 12.0078 15.3136 12.1746 14.8235L12.5199 13.8083C12.7261 13.2022 13.2022 12.7261 13.8083 12.5199L14.8235 12.1746C14.8618 12.1615 14.8993 12.146 14.9356 12.1281C15.4002 11.8994 15.5914 11.3374 15.3627 10.8729L14.889 9.91087C14.6062 9.33645 14.6062 8.66325 14.889 8.08882L15.3627 7.12676C15.3805 7.09042 15.3961 7.05294 15.4091 7.01458C15.5758 6.5244 15.3136 5.99185 14.8235 5.82511L13.8083 5.47976C13.2022 5.27356 12.7261 4.79754 12.5199 4.19137L12.1746 3.17617L12.1531 3.11933L12.1281 3.064L12.0814 2.98014C11.8295 2.57722 11.3084 2.4226 10.8729 2.63701L9.91087 3.11068C9.33645 3.39349 8.66325 3.39349 8.08882 3.11068L7.12676 2.63701C7.09042 2.61912 7.05294 2.60359 7.01458 2.59054C6.5244 2.4238 5.99185 2.686 5.82511 3.17617ZM7.53765 10.7915L11.6021 6.72709C11.8218 6.50743 12.1779 6.50743 12.3976 6.72709C12.5973 6.9268 12.6154 7.23929 12.452 7.4595L12.3976 7.52257L7.89757 12.0226C7.68322 12.237 7.34246 12.2402 7.12406 12.0435L7.06771 11.9849L5.19271 9.73492C4.99384 9.49627 5.02608 9.1416 5.26474 8.9427C5.4817 8.76195 5.79455 8.77215 5.99907 8.95477L6.05696 9.01477L7.53765 10.7915Z" fill="#072C54"/>
</svg>
