<svg width="18" height="18" viewBox="0 0 18 18" fill="none" xmlns="http://www.w3.org/2000/svg">
<path d="M7.37689 1.52548C7.46128 1.55419 7.54372 1.58834 7.62367 1.62771L8.58577 2.10137C8.84685 2.22992 9.15285 2.22992 9.41392 2.10137L10.376 1.62771C11.3979 1.12456 12.6343 1.54513 13.1374 2.56707L13.1925 2.68882L13.2396 2.81387L13.585 3.82907C13.6787 4.1046 13.8951 4.32097 14.1706 4.4147L15.1858 4.76005C16.2642 5.12689 16.841 6.29849 16.4742 7.37689C16.4455 7.46128 16.4113 7.54372 16.372 7.62367L15.8983 8.58577C15.7697 8.84685 15.7697 9.15285 15.8983 9.41392L16.372 10.376C16.8751 11.3979 16.4545 12.6343 15.4326 13.1374C15.3526 13.1767 15.2702 13.2109 15.1858 13.2396L14.1706 13.585C13.8951 13.6787 13.6787 13.8951 13.585 14.1706L13.2396 15.1858C12.8728 16.2642 11.7012 16.841 10.6228 16.4742C10.5384 16.4455 10.456 16.4113 10.376 16.372L9.41392 15.8983C9.15285 15.7697 8.84685 15.7697 8.58577 15.8983L7.62367 16.372C6.60175 16.8751 5.36542 16.4545 4.86227 15.4326C4.8229 15.3526 4.78875 15.2702 4.76005 15.1858L4.4147 14.1706C4.32097 13.8951 4.1046 13.6787 3.82907 13.585L2.81387 13.2396C1.73547 12.8728 1.15864 11.7012 1.52548 10.6228C1.55419 10.5384 1.58834 10.456 1.62771 10.376L2.10137 9.41392C2.22992 9.15285 2.22992 8.84685 2.10137 8.58577L1.62771 7.62367C1.12456 6.60175 1.54513 5.36542 2.56707 4.86227C2.64704 4.8229 2.72948 4.78875 2.81387 4.76005L3.82907 4.4147C4.1046 4.32097 4.32097 4.1046 4.4147 3.82907L4.76005 2.81387C5.12689 1.73547 6.29849 1.15864 7.37689 1.52548ZM11.6021 6.72709L7.53765 10.7915L6.05696 9.01477C5.85808 8.77605 5.50339 8.7438 5.26474 8.9427C5.02608 9.1416 4.99384 9.49627 5.19271 9.73492L7.06771 11.9849C7.27947 12.239 7.66372 12.2565 7.89757 12.0226L12.3976 7.52257C12.6172 7.30291 12.6172 6.94676 12.3976 6.72709C12.1779 6.50743 11.8218 6.50743 11.6021 6.72709Z" fill="#072C54"/>
</svg>
