<svg width="16" height="16" viewBox="0 0 16 16" fill="none" xmlns="http://www.w3.org/2000/svg">
<path d="M10.6931 0.897578C10.0341 0.238568 8.96563 0.238568 8.3066 0.897578L0.897575 8.3066C0.238573 8.96563 0.238565 10.0341 0.897575 10.6931L1.77623 11.5717C2.15925 11.9548 2.69691 11.8862 3.02178 11.6931C3.16128 11.6101 3.32405 11.5624 3.49969 11.5624C4.01745 11.5624 4.43719 11.9821 4.43719 12.4999C4.43719 12.6755 4.38942 12.8383 4.3065 12.9778C4.11339 13.3027 4.04482 13.8403 4.42784 14.2234L5.30659 15.1021C5.9656 15.7611 7.03408 15.7611 7.6931 15.1021L15.1021 7.6931C15.7611 7.03408 15.7611 5.96561 15.1021 5.30659L14.2234 4.42789C13.8403 4.04482 13.3026 4.11347 12.9777 4.30662C12.8382 4.38959 12.6753 4.43738 12.4997 4.43738C11.9819 4.43738 11.5622 4.01765 11.5622 3.49988C11.5622 3.32419 11.61 3.16139 11.6929 3.02186C11.8861 2.69699 11.9547 2.15925 11.5716 1.77619L10.6931 0.897578Z" fill="#072C54"/>
</svg>
